<svg xmlns="http://www.w3.org/2000/svg" id="Layer_1" viewBox="0 0 512 512" data-name="Layer 1"><path d="m500.051 475.475-44.9-77.779a12.018 12.018 0 0 0 -14.863-5.165l-10.5-18.194a102.893 102.893 0 0 0 -58.966-181.648v-100.789a7 7 0 0 0 -2.052-4.952l-84.928-84.898a7 7 0 0 0 -4.95-2.05h-201.035a24.25 24.25 0 0 0 -24.238 24.208v14.541h-19.076a24.237 24.237 0 0 0 -24.209 24.21v383.56a24.25 24.25 0 0 0 24.209 24.236h268.727a24.264 24.264 0 0 0 24.237-24.236v-14.514h19.076a24.265 24.265 0 0 0 24.238-24.237v-9.681a102.28 102.28 0 0 0 23.428-4.351l10.994 19.033a11.991 11.991 0 0 0 -2.955 15.422l44.9 77.783a11.949 11.949 0 0 0 7.335 5.616 12.122 12.122 0 0 0 3.115.41 11.828 11.828 0 0 0 5.975-1.618l32.06-18.5a12.033 12.033 0 0 0 4.378-16.407zm-47.309-180.1a88.938 88.938 0 1 1 -88.923-88.923 89.038 89.038 0 0 1 88.923 88.921zm-166.848-271.475 61.017 61h-61.017zm27.606 422.619a10.244 10.244 0 0 1 -10.233 10.232h-268.724a10.229 10.229 0 0 1 -10.2-10.232v-383.56a10.216 10.216 0 0 1 10.2-10.205h19.076v355.014a24.265 24.265 0 0 0 24.238 24.237h235.643zm33.083-28.519h-268.726a10.245 10.245 0 0 1 -10.234-10.233v-383.559a10.23 10.23 0 0 1 10.234-10.208h194.033v77.9a7 7 0 0 0 7 7h77.925v93.787a102.936 102.936 0 0 0 0 205.4v9.681a10.245 10.245 0 0 1 -10.232 10.232zm71.818-35.38 9.691 16.789-10.792 6.235-9.843-17.039a102.74 102.74 0 0 0 10.943-5.984zm39.928 114.643-42.922-74.357 25.554-14.758c.067-.036.136-.062.2-.1.087-.05.165-.108.249-.162l2.591-1.5 42.93 74.367zm-200.811-124.305h-9.212v-120.358a7 7 0 0 0 -7-7h-33.65a7 7 0 0 0 -7 7v21.713h-19.616v-21.713a7 7 0 0 0 -7-7h-33.62a7 7 0 0 0 -7 7v50.994h-26.62a7 7 0 0 0 -7 7v62.363h-9.24a7 7 0 0 0 0 14h166.958a7 7 0 1 0 0-14zm-42.86-113.358h19.642v113.358h-19.642zm-14 28.715v84.642h-19.618v-84.641zm-53.238-28.715h19.615v113.358h-19.615zm-33.619 58h19.615v55.361h-19.616zm-20.978-244.068a7 7 0 0 1 7-7h124.926a7 7 0 1 1 0 14h-124.924a7 7 0 0 1 -7.002-7zm0 42.151a7 7 0 0 1 7-7h124.926a7 7 0 1 1 0 14h-124.924a7 7 0 0 1 -7.002-7zm192.446 179.69a78.535 78.535 0 1 0 78.55-78.549 78.639 78.639 0 0 0 -78.55 78.549zm143.066 0a64.531 64.531 0 1 1 -64.516-64.545 64.6 64.6 0 0 1 64.516 64.545zm-331.989-59.637a20.631 20.631 0 0 0 18.371-25.99l17.719-12.2a20.464 20.464 0 0 0 12.569 4.336c.569 0 1.142-.023 1.716-.07a20.646 20.646 0 0 0 8.667-2.686l13.662 11.641a20.727 20.727 0 0 0 19.35 28.071c.552 0 1.106-.023 1.663-.066a20.767 20.767 0 0 0 17.63-28.4l35.777-31.759a20.477 20.477 0 0 0 9.869 2.541c.572 0 1.148-.023 1.724-.07a20.7 20.7 0 1 0 -20.906-12.929l-35.757 31.745a20.641 20.641 0 0 0 -11.613-2.5h-.029a20.623 20.623 0 0 0 -8.618 2.705l-13.651-11.632a20.738 20.738 0 1 0 -40.062-5.713 20.9 20.9 0 0 0 .473 2.968l-18.141 12.494a20.669 20.669 0 0 0 -13.714-3.859 20.751 20.751 0 0 0 1.624 41.437c.557 0 1.117-.019 1.677-.064zm151.946-79.689a6.674 6.674 0 0 1 4.587-2.343c.178-.015.356-.022.531-.022a6.783 6.783 0 0 1 6.736 6.206 6.764 6.764 0 0 1 -11.113 5.663 7.1 7.1 0 0 1 -.538-.516c-.039-.047-.072-.1-.113-.142s-.064-.063-.095-.1a6.648 6.648 0 0 1 -1.59-3.826 6.722 6.722 0 0 1 1.595-4.92zm-60.4 55.312a6.747 6.747 0 0 1 5.658 11.108 6.726 6.726 0 0 1 -11.83-3.864 6.746 6.746 0 0 1 6.18-7.244zm-47.947-34.581a6.7 6.7 0 0 1 4.619-2.353h.025c.186-.015.372-.023.557-.023a6.61 6.61 0 0 1 4.3 1.59 6.735 6.735 0 0 1 2.356 4.647 6.6 6.6 0 0 1 -1.572 4.852 6.727 6.727 0 0 1 -4.642 2.362 6.6 6.6 0 0 1 -4.852-1.572 6.723 6.723 0 0 1 -2.362-4.639 6.613 6.613 0 0 1 1.574-4.864zm-49.645 43.405a6.747 6.747 0 0 1 3.841-11.855 6.747 6.747 0 1 1 -3.841 11.855z" fill="#fb4455"></path></svg>