<svg xmlns="http://www.w3.org/2000/svg" id="Layer_1" viewBox="0 0 512 512"><g><g><g><g><path d="m466.1 147.5h-420.2c-2.7 0-4.9-2.1-4.9-4.9s2.1-4.9 4.9-4.9h420.1c2.7 0 4.9 2.1 4.9 4.9.1 2.7-2.1 4.9-4.8 4.9z" fill="#f2ca4b"></path></g></g></g><g><g><g><path d="m133.3 115.3c-11 0-20.1-9-20.1-20.1v-28.5c0-11 9-20.1 20.1-20.1s20.1 9 20.1 20.1v28.6c-.1 11.1-9.1 20-20.1 20zm0-58.9c-5.6 0-10.2 4.6-10.2 10.2v28.6c0 5.6 4.6 10.2 10.2 10.2s10.2-4.6 10.2-10.2v-28.5c0-5.7-4.5-10.3-10.2-10.3z" fill="#f2ca4b"></path></g></g><g><g><path d="m215.1 115.3c-11 0-20.1-9-20.1-20.1v-28.5c0-11 9-20.1 20.1-20.1 11 0 20.1 9 20.1 20.1v28.6c-.1 11.1-9.1 20-20.1 20zm0-58.9c-5.6 0-10.2 4.6-10.2 10.2v28.6c0 5.6 4.6 10.2 10.2 10.2s10.2-4.6 10.2-10.2v-28.5c0-5.7-4.5-10.3-10.2-10.3z" fill="#f2ca4b"></path></g></g><g><g><path d="m296.9 115.3c-11 0-20.1-9-20.1-20.1v-28.5c0-11 9-20.1 20.1-20.1 11 0 20.1 9 20.1 20.1v28.6c-.1 11.1-9.1 20-20.1 20zm0-58.9c-5.7 0-10.2 4.5-10.2 10.2v28.6c0 5.7 4.5 10.2 10.2 10.2 5.6 0 10.2-4.7 10.2-10.3v-28.4c.1-5.7-4.5-10.3-10.2-10.3z" fill="#f2ca4b"></path></g></g><g><g><path d="m378.7 115.3c-11 0-20.1-9-20.1-20.1v-28.5c0-11 9-20.1 20.1-20.1 11 0 20.1 9 20.1 20.1v28.6c-.1 11.1-9 20-20.1 20zm0-58.9c-5.6 0-10.2 4.6-10.2 10.2v28.6c0 5.6 4.6 10.2 10.2 10.2s10.2-4.6 10.2-10.2v-28.5c.1-5.8-4.5-10.3-10.2-10.3z" fill="#f2ca4b"></path></g></g></g><g><g><g><path d="m433 434.2h-353.6c-2.7 0-4.9-2.1-4.9-4.9v-255.6c0-2.7 2.1-4.9 4.9-4.9h353.8c2.7 0 4.9 2.1 4.9 4.9v255.7c-.1 2.7-2.3 4.8-5.1 4.8zm-348.8-9.7h343.9v-246h-343.9z" fill="#f2ca4b"></path></g><g><g><path d="m256.1 434.2c-2.7 0-4.9-2.1-4.9-4.9v-255.6c0-2.7 2.1-4.9 4.9-4.9s4.9 2.1 4.9 4.9v255.7c0 2.7-2.2 4.8-4.9 4.8z" fill="#f2ca4b"></path></g><g><path d="m167.7 434.2c-2.7 0-4.9-2.1-4.9-4.9v-255.6c0-2.7 2.1-4.9 4.9-4.9s4.9 2.1 4.9 4.9v255.7c0 2.7-2.2 4.8-4.9 4.8z" fill="#f2ca4b"></path></g><g><path d="m344.5 434.2c-2.7 0-4.9-2.1-4.9-4.9v-255.6c0-2.7 2.1-4.9 4.9-4.9s4.9 2.1 4.9 4.9v255.7c0 2.7-2.2 4.8-4.9 4.8z" fill="#f2ca4b"></path></g></g><g><path d="m432.9 306.5h-353.5c-2.7 0-4.9-2.1-4.9-4.9s2.1-4.9 4.9-4.9h353.6c2.7 0 4.9 2.1 4.9 4.9s-2.2 4.9-5 4.9z" fill="#f2ca4b"></path></g><g><path d="m432.9 370.4h-353.5c-2.7 0-4.9-2.1-4.9-4.9s2.1-4.9 4.9-4.9h353.6c2.7 0 4.9 2.1 4.9 4.9s-2.2 4.9-5 4.9z" fill="#f2ca4b"></path></g><g><path d="m432.9 242.6h-353.5c-2.7 0-4.9-2.1-4.9-4.9s2.1-4.9 4.9-4.9h353.6c2.7 0 4.9 2.1 4.9 4.9 0 2.7-2.2 4.9-5 4.9z" fill="#f2ca4b"></path></g></g></g><g><path d="m200 85.9h-51.6c-2.7 0-4.9-2.1-4.9-4.9 0-2.7 2.1-4.9 4.9-4.9h51.6c2.7 0 4.9 2.1 4.9 4.9s-2.2 4.9-4.9 4.9z" fill="#f2ca4b"></path></g><g><path d="m363.6 85.9h-51.5c-2.7 0-4.9-2.1-4.9-4.9 0-2.7 2.1-4.9 4.9-4.9h51.5c2.7 0 4.9 2.1 4.9 4.9s-2.2 4.9-4.9 4.9z" fill="#f2ca4b"></path></g><g><path d="m447.2 465.4h-382.4c-13 0-23.8-10.6-23.8-23.8v-341.7c0-13 10.6-23.8 23.8-23.8h53.4c2.7 0 4.9 2.1 4.9 4.9 0 2.7-2.1 4.9-4.9 4.9h-53.4c-7.7 0-13.9 6.2-13.9 14v341.7c0 7.7 6.2 13.9 13.9 13.9h382.5c7.7 0 13.9-6.2 13.9-13.9v-341.7c0-7.7-6.2-14-13.9-14h-53.4c-2.7 0-4.9-2.1-4.9-4.9 0-2.7 2.1-4.9 4.9-4.9h53.4c13 0 23.8 10.6 23.8 23.8v341.7c-.1 13.1-10.8 23.8-23.9 23.8z" fill="#f2ca4b"></path></g><g><path d="m281.8 85.9h-51.6c-2.7 0-4.9-2.1-4.9-4.9 0-2.7 2.1-4.9 4.9-4.9h51.6c2.7 0 4.9 2.1 4.9 4.9s-2.2 4.9-4.9 4.9z" fill="#f2ca4b"></path></g></g></svg>