<svg xmlns="http://www.w3.org/2000/svg" id="Layer_1" viewBox="0 0 512 512" data-name="Layer 1"><path d="m31.08 423.331a18.992 18.992 0 0 1 -9.289-2.43l167.83-156.692 62.28 58.152a6 6 0 0 0 8.181 0l62.288-58.152 167.822 156.691a19 19 0 0 1 -9.29 2.43zm-17.4-11.28 167.143-156.051-167.142-156.055a18.874 18.874 0 0 0 -1.689 7.813v296.485a18.834 18.834 0 0 0 1.689 7.808zm467.22-323.386h-449.82a18.938 18.938 0 0 0 -9.289 2.43l234.2 218.665 234.201-218.66a18.942 18.942 0 0 0 -9.29-2.43zm19.089 19.093a18.89 18.89 0 0 0 -1.689-7.813l-167.14 156.055 167.14 156.051a18.85 18.85 0 0 0 1.689-7.808zm-19.089-31.095h-449.82a31.131 31.131 0 0 0 -31.09 31.1v296.48a31.123 31.123 0 0 0 31.09 31.09h449.82a31.124 31.124 0 0 0 31.091-31.09v-296.485a31.132 31.132 0 0 0 -31.091-31.095z" fill="#f44336" fill-rule="evenodd"></path></svg>