<svg xmlns="http://www.w3.org/2000/svg" id="Layer_1" viewBox="0 0 512 512" data-name="Layer 1"><path d="m302.123 240.339a7 7 0 0 0 6.063 3.5h181.107a7 7 0 0 0 6.98-7.554 257.1 257.1 0 0 0 -318.214-228.708 7 7 0 0 0 -4.375 10.3zm-61.856-226.339c123.276 0 227.833 94.206 241.333 215.836h-169.371l-121.674-210.747a244.764 244.764 0 0 1 49.712-5.089zm-82.293 23.631a7 7 0 0 0 -8.9-2.9 241.479 241.479 0 0 0 97.713 462.3 245.964 245.964 0 0 0 24.629-1.227 7 7 0 0 0 6.3-6.965v-241.939a7 7 0 0 0 -.938-3.5zm105.737 444.789c-5.583.4-11.252.609-16.924.609-125.418 0-227.454-102.035-227.454-227.454a227.729 227.729 0 0 1 129.7-205.416l114.678 198.618zm241.1-212.831a7 7 0 0 0 -5.143-2.251h-191.482a7 7 0 0 0 -7 7v230.662a7 7 0 0 0 8.83 6.759 267.827 267.827 0 0 0 196.632-236.866 7 7 0 0 0 -1.837-5.304zm-189.623 226.088v-214.334h176.788a253.865 253.865 0 0 1 -176.788 214.334zm-200.78-278.087a7 7 0 0 0 -7 7v50.032h-26.081a7 7 0 0 0 -7 7v61.256h-8.959a7 7 0 0 0 0 14h164.241a7 7 0 0 0 0-14h-8.957v-118.286a7 7 0 0 0 -7-7h-33.083a7 7 0 0 0 -7 7v21.232h-19.079v-21.232a7 7 0 0 0 -7-7zm7 14h19.078v111.292h-19.077zm-33.08 57.034h19.077v54.254h-19.076zm99.242-57.034h19.077v111.292h-19.076zm-14 28.234v83.054h-19.08v-83.05z" fill="#ff9f00"></path></svg>