<svg xmlns="http://www.w3.org/2000/svg" id="Layer_1" viewBox="0 0 512 512" data-name="Layer 1"><path d="m510.9 484.721-77.022-120.388-77.078-120.533a7 7 0 0 0 -5.9-3.23 7 7 0 0 0 -5.9 3.229l-33.771 52.787-48.229-86.658v-48.528h159.027a7 7 0 0 0 5.177-11.716l-36.356-39.931 36.355-39.9a7 7 0 0 0 -5.176-11.718h-159.027v-.826a20.971 20.971 0 0 0 13.953-21.452 21.067 21.067 0 0 0 -22.6-19.285h-.026a21.01 21.01 0 0 0 -5.327 40.754v152.6l-48.316 86.807-33.745-52.762a7 7 0 0 0 -5.9-3.23 7 7 0 0 0 -5.9 3.229l-154.039 240.751a7 7 0 0 0 5.9 10.779h498a7 7 0 0 0 5.9-10.775zm-104.724-412.584-29.974 32.9a7 7 0 0 0 0 9.43l29.982 32.933h-143.184v-75.263zm-150.73-41.607a7.065 7.065 0 0 1 7.548 6.429 7.017 7.017 0 0 1 -13.988 1.133 7.056 7.056 0 0 1 6.44-7.562zm-94.409 230.209 31.91 49.893-95.1 170.86h-78.053zm-47.163 220.753 142.126-255.35 142.126 255.35zm300.278 0-95.182-171.009 31.93-49.914 71.179 111.31 70.125 109.613z" fill="#45bf64"></path></svg>