<svg xmlns="http://www.w3.org/2000/svg" id="Layer_1" viewBox="0 0 512 512" data-name="Layer 1"><path d="m45.543 31.6a26.81 26.81 0 0 1 10.568-8.7 907.9 907.9 0 0 0 84.589 138.3c-4.388 3.934-8.209 7.331-11.323 10.152a29.766 29.766 0 0 0 -7.69 33.86 345.854 345.854 0 0 0 185.08 185.081 29.764 29.764 0 0 0 33.874-7.676c2.83-3.156 6.227-6.944 10.143-11.327a903.354 903.354 0 0 0 138.326 84.58 26.948 26.948 0 0 1 -8.728 10.6c-34.629 25.91-67.936 36.884-98.932 32.619-.095-.014-.142-.019-.236-.028-184.324-18.753-349.541-183.97-368.271-368.294 0-.071-.047-.141-.047-.212-4.246-31 6.7-64.294 32.647-98.951zm65.483-19.466-43.026 7.746a893.742 893.742 0 0 0 81.712 133.3c7.548-6.755 16.465-14.658 26.655-23.692a7.854 7.854 0 0 0 1.652-9.983l-58.548-103.413a7.9 7.9 0 0 0 -6.935-4.092 8.58 8.58 0 0 0 -1.51.136zm271.462 323.489q-13.516 15.258-23.688 26.677a892.983 892.983 0 0 0 133.325 81.688l7.737-43.022a7.861 7.861 0 0 0 -3.963-8.421l-103.41-58.587a7.92 7.92 0 0 0 -10 1.665zm-340.719-67.1a454.992 454.992 0 0 0 84.92 116.784 455.2 455.2 0 0 0 116.765 84.93c44.253 22.32 90.157 36.03 136.439 40.752a108.832 108.832 0 0 0 14.766 1c29.817 0 61-12.039 92.894-35.907a38.891 38.891 0 0 0 15.474-25.014l8.634-47.975a19.872 19.872 0 0 0 -9.861-20.993l-103.413-58.583a19.884 19.884 0 0 0 -24.863 4.143c-18.918 21.343-32.978 37.133-41.8 46.932a17.656 17.656 0 0 1 -20.333 4.614 332 332 0 0 1 -178.616-178.583 17.663 17.663 0 0 1 4.623-20.347c9.672-8.7 25.429-22.759 46.942-41.809a19.972 19.972 0 0 0 4.152-24.877l-58.592-103.414a19.818 19.818 0 0 0 -21-9.846l-47.977 8.633a38.87 38.87 0 0 0 -25 15.456c-27.839 37.233-39.587 73.46-34.916 107.669 4.718 46.301 18.447 92.205 40.762 136.434z" fill="#2196f3" fill-rule="evenodd"></path></svg>