<svg xmlns="http://www.w3.org/2000/svg" id="Layer_1" viewBox="0 0 512 512" data-name="Layer 1"><path d="m163.863 44.942a7 7 0 0 1 7-7h.227a7 7 0 0 1 0 14h-.227a7 7 0 0 1 -7-7zm-40.788 66.838h95.807a7 7 0 0 0 0-14h-95.807a7 7 0 0 0 0 14zm386.874 75.332-40.335 40.336a7.012 7.012 0 0 1 -4.344 2.024l-40.77 3.548-14.746 14.746a122.2 122.2 0 0 1 -67.825 201.334v36.78a19.751 19.751 0 0 1 -19.729 19.728h-302.472a19.75 19.75 0 0 1 -19.728-19.728v-401.397a19.736 19.736 0 0 1 19.728-19.7h69.763a34.5 34.5 0 0 1 33.017-24.66h8.34a40.737 40.737 0 0 1 80.26 0h8.34a34.5 34.5 0 0 1 33.017 24.66h69.735a19.737 19.737 0 0 1 19.729 19.7v124.591a121.948 121.948 0 0 1 57.923 28.791l14.748-14.747 3.549-40.743a7 7 0 0 1 2.022-4.341l40.329-40.364a7 7 0 0 1 11.928 5.557l-2.1 24.161 8.063-8.063a7 7 0 0 1 9.9 9.9l-8.062 8.063 24.161-2.1a7 7 0 0 1 5.557 11.926zm-79.949 20.61 24.938-24.939 1.881-21.61-24.939 24.956zm-107.8-128.936h-68.312v14.427h52.612a7 7 0 0 1 7 7v106.72c1.674-.069 3.355-.113 5.046-.113q4.734 0 9.382.357v-122.694a5.787 5.787 0 0 0 -5.728-5.697zm-234.132 45.777v-17.347h-45.607v355.931h257.039v-13.278a122.278 122.278 0 0 1 0-241.562v-101.091h-45.612v17.347a15.593 15.593 0 0 1 -15.59 15.562h-134.639a15.594 15.594 0 0 1 -15.591-15.562zm14.111-52.1v.053a20.378 20.378 0 0 0 -.1 2.048v50a1.6 1.6 0 0 0 1.588 1.559h134.633a1.6 1.6 0 0 0 1.588-1.559v-50c0-.693-.037-1.378-.1-2.053v-.044a20.465 20.465 0 0 0 -20.33-18.34h-14.749a7 7 0 0 1 -7-7 26.73 26.73 0 0 0 -53.459 0 7 7 0 0 1 -7 7h-14.742a20.465 20.465 0 0 0 -20.329 18.335zm225.747 378.537q-4.645.354-9.382.357c-1.691 0-3.372-.044-5.046-.113v18.906a7 7 0 0 1 -7 7h-271.038a7 7 0 0 1 -7-7v-369.935a7 7 0 0 1 7-7h52.608v-14.429h-68.34a5.787 5.787 0 0 0 -5.728 5.697v401.4a5.732 5.732 0 0 0 5.726 5.725h302.474a5.732 5.732 0 0 0 5.726-5.725zm71.914-193.32-19.131 19.131a81.391 81.391 0 1 1 -9.9-9.9l19.131-19.131a107.886 107.886 0 0 0 -55.54-25.791 7.233 7.233 0 0 1 -.962-.135 108.264 108.264 0 1 0 .01 214.467 6.9 6.9 0 0 1 .938-.132 108.208 108.208 0 0 0 65.454-178.509zm-58.446 58.446-17.9 17.9a7 7 0 0 1 -9.9-9.9l17.9-17.9a26.307 26.307 0 1 0 9.9 9.9zm19.475-39.279a67.359 67.359 0 1 0 9.9 9.9l-19.244 19.253a40.343 40.343 0 1 1 -9.9-9.9zm125.587-86.047-21.621 1.882-24.935 24.942 21.621-1.881zm-426.563-13.259a7 7 0 0 0 7 7h154.907a7 7 0 1 0 0-14h-154.9a7 7 0 0 0 -7.007 7zm161.907 33.39h-154.9a7 7 0 1 0 0 14h154.9a7 7 0 1 0 0-14zm-51.645 40.42h-103.255a7 7 0 1 0 0 14h103.256a7 7 0 0 0 0-14zm0 40.421h-103.255a7 7 0 1 0 0 14h103.256a7 7 0 0 0 0-14zm0 40.42h-103.255a7 7 0 1 0 0 14h103.256a7 7 0 0 0 0-14zm0 40.392h-103.255a7 7 0 1 0 0 14h103.256a7 7 0 0 0 0-14zm0 40.42h-103.255a7 7 0 1 0 0 14h103.256a7 7 0 0 0 0-14z" fill="#00b3fe"></path></svg>