<svg xmlns="http://www.w3.org/2000/svg" id="Layer_1" viewBox="0 0 512 512" data-name="Layer 1"><path d="m352.891 496c-74.861 0-120.852-21.951-120.852-37.679 0-13.461 33.161-30.731 87.03-36.051l27.171 40.51a8.019 8.019 0 0 0 13.3 0l27.17-40.51c53.87 5.32 87.031 22.59 87.031 36.051 0 15.728-45.992 37.679-120.852 37.679zm-88.729-100.771a99.053 99.053 0 0 0 23.161-20.269l7.925 11.8a188.648 188.648 0 0 1 -31.086 8.468zm98.446-325.029a221.423 221.423 0 0 1 -46.7 18.34c-12.972-32.44-31.038-56.548-51.793-69.34a192.775 192.775 0 0 1 98.493 51zm-35.1 54.96a127.339 127.339 0 0 1 78.728 9.16 190.407 190.407 0 0 0 -32.265-52.141c-15.283 8.75-33.114 15.961-52.6 21.421 2.265 6.88 4.34 14.079 6.133 21.56zm-161.32 212.9c17.312 33.18 39.812 51.45 63.256 51.45 21.086 0 37.6-14.561 48.539-28.421l-15.708-23.4a220.232 220.232 0 0 1 -13.208-22.43c-6.509-.36-13.066-.549-19.623-.549a338.374 338.374 0 0 0 -70.757 7.29c2.312 5.579 4.812 10.951 7.5 16.06zm-23.209-12.229c2.783 6.858 5.755 13.42 9.01 19.638 12.029 22.97 26.6 39.821 42.643 49.72a190.738 190.738 0 0 1 -98.352-50.989 220.338 220.338 0 0 1 46.7-18.369zm-20.944-110.641h-83.587a190.408 190.408 0 0 0 46.464 117.02c15.283-8.76 33.114-15.97 52.6-21.43-9.435-28.6-14.765-61.341-15.473-95.59zm15.473-111.59c-9.435 28.6-14.765 61.341-15.473 95.589h-83.587a190.4 190.4 0 0 1 46.464-117.019c15.283 8.751 33.114 15.97 52.6 21.43zm14.481-34.69c12.029-22.97 26.6-39.82 42.643-49.721a190.748 190.748 0 0 0 -98.352 50.991 220.438 220.438 0 0 0 46.7 18.36c2.783-6.851 5.755-13.42 9.01-19.63zm77.455 30.75a338.246 338.246 0 0 0 70.709-7.271c-17.264-41.669-43.35-67.52-70.709-67.52-23.444 0-45.945 18.27-63.256 51.451q-4.034 7.664-7.5 16.06a339.054 339.054 0 0 0 70.757 7.28zm7.972 99.529h-99.39c.708-33.029 5.9-64.458 15.048-91.7a352.548 352.548 0 0 0 76.37 8.17 352.681 352.681 0 0 0 76.37-8.159c2.311 6.94 4.434 14.229 6.274 21.821a125.851 125.851 0 0 0 -48.822 30.339 112.777 112.777 0 0 0 -25.85 39.529zm-7.453 47.4c.708 17.149 4.717 34.8 11.7 52.328-4.056-.14-8.16-.21-12.217-.21a352.673 352.673 0 0 0 -76.37 8.17c-9.151-27.239-14.34-58.659-15.048-91.689h94.626a122.836 122.836 0 0 0 -2.689 31.4zm200.237 82.19c30.85-45.939 47.266-111.51.991-157.8a110.868 110.868 0 0 0 -156.608 0c-46.275 46.288-29.859 111.859.99 157.8l77.318 115.181zm26.558 93.69c-15.756-6.969-36.7-12.239-60-15.169l46.747-69.61c19.906-29.64 31.038-61.14 32.312-91.1 1.368-33.682-10.142-63.74-33.3-86.931a130.276 130.276 0 0 0 -14.765-12.65 208.6 208.6 0 0 0 -72.644-104.569 205.347 205.347 0 0 0 -125.664-42.44c-114.244 0-207.175 92.94-207.175 207.19s92.931 207.19 207.175 207.19a206.1 206.1 0 0 0 74.956-13.98l4.623 6.9c-23.3 2.93-44.247 8.2-60 15.169-27.265 12.071-32.972 26.161-32.972 35.852 0 11.208 7.452 27.219 43.067 39.839 25.142 8.92 58.492 13.84 93.776 13.84s68.587-4.92 93.776-13.84c35.614-12.62 43.067-28.631 43.067-39.839 0-9.691-5.708-23.781-32.972-35.852zm-58.351-173.19a45.52 45.52 0 1 1 -45.52-45.529 45.575 45.575 0 0 1 45.52 45.529zm-107.031 0a61.511 61.511 0 1 0 61.511-61.529 61.589 61.589 0 0 0 -61.507 61.529z" fill="#4caf50" fill-rule="evenodd"></path></svg>