<svg xmlns="http://www.w3.org/2000/svg" width="454.49" height="135.49" viewBox="0 0 454.49 135.49"><title>logo-white.</title><path d="M0,43.83V28.74H71.1V43.83H44.6v71.46H26.52V43.83Z" transform="translate(-0.02 -0.01)" fill="#fff"/><path d="M75.75,115.29V50.38H93.2V61.7h.68a16.84,16.84,0,0,1,6-9.15,15.73,15.73,0,0,1,9.63-3.1,25.65,25.65,0,0,1,2.92.17,21.51,21.51,0,0,1,2.75.46v16a23.23,23.23,0,0,0-3.51-.68,31.17,31.17,0,0,0-4.1-.3,14.33,14.33,0,0,0-7.08,1.72,12.64,12.64,0,0,0-4.9,4.75,13.52,13.52,0,0,0-1.8,7v36.73Z" transform="translate(-0.02 -0.01)" fill="#fff"/><path d="M166,87.65V50.38h18v64.91H166.73V103.5h-.68a19.2,19.2,0,0,1-7.28,9.17,21.54,21.54,0,0,1-12.41,3.46,21.8,21.8,0,0,1-11.45-3,20.09,20.09,0,0,1-7.71-8.41,28.82,28.82,0,0,1-2.81-13.05V50.38h18V88.5q0,5.75,3.08,9.08a10.49,10.49,0,0,0,8.16,3.34,12.83,12.83,0,0,0,6.09-1.5A11.66,11.66,0,0,0,164.3,95,13.82,13.82,0,0,0,166,87.65Z" transform="translate(-0.02 -0.01)" fill="#fff"/><path d="M245.67,53.63a10.68,10.68,0,0,0-4.35-7.94q-3.85-2.84-10.44-2.83a20.3,20.3,0,0,0-7.57,1.24,10.66,10.66,0,0,0-4.71,3.45,8.17,8.17,0,0,0-1.63,5,7.06,7.06,0,0,0,1,4.06,9.73,9.73,0,0,0,3,3,20.86,20.86,0,0,0,4.39,2.15,43.34,43.34,0,0,0,5.33,1.55l7.77,1.86a54.42,54.42,0,0,1,10.4,3.38,31.63,31.63,0,0,1,8.2,5.2A21.7,21.7,0,0,1,262.42,81a23.1,23.1,0,0,1,2,9.6,23.87,23.87,0,0,1-4,13.75,25.6,25.6,0,0,1-11.49,9q-7.5,3.2-18.07,3.19a47.47,47.47,0,0,1-18.23-3.21,26.56,26.56,0,0,1-12.09-9.53q-4.33-6.31-4.54-15.65h17.71a13,13,0,0,0,2.51,7.24,13.49,13.49,0,0,0,6,4.35,23,23,0,0,0,8.47,1.46,22.08,22.08,0,0,0,8.09-1.35A12.34,12.34,0,0,0,244,96.06a8.68,8.68,0,0,0,1.9-5.54,7.26,7.26,0,0,0-1.71-4.9,13.37,13.37,0,0,0-5-3.38,51.4,51.4,0,0,0-8-2.53l-9.43-2.37Q210.86,74.67,204.51,69t-6.3-15.25A22.63,22.63,0,0,1,202.42,40a28.1,28.1,0,0,1,11.68-9.17A41.43,41.43,0,0,1,231,27.56a40.22,40.22,0,0,1,16.84,3.29A26.61,26.61,0,0,1,259.06,40a24.32,24.32,0,0,1,4.15,13.61Z" transform="translate(-0.02 -0.01)" fill="#fff"/><path d="M305.88,116.55q-10,0-17.21-4.07a27.56,27.56,0,0,1-11.1-11.58,38.18,38.18,0,0,1-3.89-17.77,38,38,0,0,1,3.89-17.58,28.72,28.72,0,0,1,11-11.79,31.8,31.8,0,0,1,16.63-4.23,34.53,34.53,0,0,1,12,2,27.18,27.18,0,0,1,9.72,6.15A28,28,0,0,1,333.35,68a41.08,41.08,0,0,1,2.33,14.47v5H280.87V76.28h37.86A13.8,13.8,0,0,0,317,69.39a12.29,12.29,0,0,0-4.67-4.71A13.62,13.62,0,0,0,305.46,63a13.91,13.91,0,0,0-7.25,1.88,13.56,13.56,0,0,0-4.92,5,14.38,14.38,0,0,0-1.82,7V87.48a18.05,18.05,0,0,0,1.8,8.33,12.89,12.89,0,0,0,5.09,5.4,15.39,15.39,0,0,0,7.82,1.91,17.09,17.09,0,0,0,5.49-.85,11.36,11.36,0,0,0,4.27-2.53,11,11,0,0,0,2.71-4.15l16.65,1.1a22.7,22.7,0,0,1-5.18,10.46,26,26,0,0,1-10.06,6.93A37.75,37.75,0,0,1,305.88,116.55Z" transform="translate(-0.02 -0.01)" fill="#fff"/><path d="M339,98.15a42.93,42.93,0,0,0,4,6.42,42.59,42.59,0,0,0,75.9-18.71,55.13,55.13,0,0,0,.75-8.7,27,27,0,0,0-.36-3.35c-.07-.53-.12-1.06-.14-1.6a2.61,2.61,0,0,1,1.24-2.51,32.77,32.77,0,0,0,5.24-4.82c1.35-1.43,2.7-2.86,4.19-4.16a1.3,1.3,0,0,1,.65-.44,60.09,60.09,0,0,1,1.9,7.29A56.29,56.29,0,0,1,425,108.21a55.88,55.88,0,0,1-52.59,27.11c-13.05-1-24.26-6.16-33.92-14.87a35.14,35.14,0,0,1-4.07-3.93.73.73,0,0,1-.15-.87,72,72,0,0,0,4.49-16.89C338.82,98.59,338.88,98.42,339,98.15Z" transform="translate(-0.02 -0.01)" fill="#2166ff"/><path d="M376.89,46.33a26.22,26.22,0,0,1,7.73.9.79.79,0,0,1,.68.75,48.78,48.78,0,0,1,.72,5.39c0,.24.07.49-.16.71-2.06,1.84-3.81,4-5.91,5.79a1.78,1.78,0,0,1-1.1.43,36.43,36.43,0,0,0-5.8.42c-5.6,1.33-9.83,4.43-12.24,9.72a18.7,18.7,0,0,0,3.66,21,17,17,0,0,0,11.92,4.79c6.9.12,12.2-2.72,15.79-8.6a17,17,0,0,0,2.39-9.68A4.19,4.19,0,0,1,396,74.37c1.74-1.62,3.38-3.34,5-5a.82.82,0,0,1,.88-.25,44.28,44.28,0,0,0,4.85.71.88.88,0,0,1,.91.78,31.33,31.33,0,0,1-1.18,19.12c-4.32,11.5-12.75,18.51-24.77,20.28-12.8,1.9-23.29-2.74-31-13.31A29.82,29.82,0,0,1,345.12,82a31.15,31.15,0,0,1,2.8-17.32c1.73-3.55,3.66-7.05,6.8-9.7a34.79,34.79,0,0,1,18-8.45c.51-.06,1-.14,1.52-.16C375.15,46.32,376,46.33,376.89,46.33Z" transform="translate(-0.02 -0.01)" fill="#fff"/><path d="M437.07,39.42c-2.07-.18-4.28-.64-6.49-1-1.72-.27-3.44-.49-5.17-.69a1.4,1.4,0,0,0-1.27.47q-21.74,21.85-43.5,43.69a5,5,0,0,1-5.18,1.44,5.16,5.16,0,0,1-2.21-8.69C386.57,61.3,399.94,48,413.17,34.54c1.26-1.28,2.49-2.58,3.75-3.85a1.28,1.28,0,0,0,.39-1,62.84,62.84,0,0,0-1.13-8.42c-.2-1.28-.37-2.58-.51-3.87a5.39,5.39,0,0,1,1.11-3.73,14.36,14.36,0,0,1,1.81-2.08C422.13,8,425.73,4.48,429.17.81c1.47-1.57,4.26-.63,5,1,1.46,3.2,2.69,6.49,4,9.77.28.71.63,1.4.84,2.13a2.93,2.93,0,0,0,2,2c3.82,1.43,7.59,3,11.34,4.57a3.48,3.48,0,0,1,2.13,3.9,2.79,2.79,0,0,1-.79,1.54c-3.81,3.86-7.6,7.73-11.42,11.58A7,7,0,0,1,437.07,39.42Z" transform="translate(-0.02 -0.01)" fill="#2166ff"/><path d="M337.45,61.78A64.17,64.17,0,0,0,333,48.92,34.56,34.56,0,0,0,331,45.44a.77.77,0,0,1,0-1.07,64.92,64.92,0,0,1,13.26-12.86,55.16,55.16,0,0,1,25.9-10,53.84,53.84,0,0,1,24.26,2.39l.65.23s.07.07.14.14c-.28.28-.55.57-.84.84-3.36,3.25-6.51,6.72-9.93,9.91a1.94,1.94,0,0,1-1.68.59,50.54,50.54,0,0,0-10.72-.06,41.4,41.4,0,0,0-22.55,9.57,41.89,41.89,0,0,0-11.88,16.12C337.64,61.37,337.57,61.5,337.45,61.78Z" transform="translate(-0.02 -0.01)" fill="#2166ff"/></svg>